<svg id="Calque_1" data-name="Calque 1" xmlns="http://www.w3.org/2000/svg" xmlns:xlink="http://www.w3.org/1999/xlink" viewBox="0 0 878.05 326.76"><defs><style>.cls-1{fill:none;}.cls-2{clip-path:url(#clip-path);}.cls-3{fill:#2b3181;}.cls-4{fill:#38a8e0;}</style><clipPath id="clip-path"><rect class="cls-1" width="878.05" height="326.76"/></clipPath></defs><g class="cls-2"><polygon class="cls-3" points="222.23 225.08 222.23 259.53 276.71 259.53 276.71 271.85 222.23 271.85 222.23 312.55 281.7 312.55 281.7 324.89 209.18 324.89 209.18 212.74 281.7 212.74 281.7 225.08 222.23 225.08"/><polygon class="cls-3" points="355.03 256.32 387.9 212.74 402.41 212.74 362.28 265.93 406.92 324.89 392.41 324.89 355.03 275.54 317.8 324.89 303.29 324.89 347.78 265.93 307.8 212.74 322.31 212.74 355.03 256.32"/><g class="cls-2"><path class="cls-3" d="M449.94,324.89H436.89V212.74H479.6a59.83,59.83,0,0,1,15,1.84,32.73,32.73,0,0,1,12.24,5.93,29.07,29.07,0,0,1,8.22,10.58,36.75,36.75,0,0,1,3.06,15.77,35.17,35.17,0,0,1-2.89,14.9A27.45,27.45,0,0,1,507.15,272,33.26,33.26,0,0,1,495,277.86a59,59,0,0,1-15.06,1.85h-30Zm30-57a41.37,41.37,0,0,0,9.75-1.11,22.26,22.26,0,0,0,8-3.61,17.69,17.69,0,0,0,5.4-6.57,22.55,22.55,0,0,0,2-10,23.85,23.85,0,0,0-1.93-10.1,17.5,17.5,0,0,0-5.33-6.73,22.43,22.43,0,0,0-8.05-3.76,40.76,40.76,0,0,0-10.15-1.21H449.94v43.1Z"/><polygon class="cls-3" points="567.74 225.08 567.74 259.53 622.22 259.53 622.22 271.85 567.74 271.85 567.74 312.55 627.21 312.55 627.21 324.89 554.7 324.89 554.7 212.74 627.21 212.74 627.21 225.08 567.74 225.08"/><path class="cls-3" d="M679,324.89H665.89V212.74H708a63.81,63.81,0,0,1,14.9,1.68A33.11,33.11,0,0,1,735.11,220a27.88,27.88,0,0,1,8.3,10.17q3.06,6.26,3.06,15.38a33.43,33.43,0,0,1-2.42,13.3,25.84,25.84,0,0,1-6.68,9.37,29.87,29.87,0,0,1-9.91,5.77,46.19,46.19,0,0,1-12.09,2.48l33,48.39H734.23l-33-47.75H679Zm29.33-60.08a50.53,50.53,0,0,0,9.74-.89,21.37,21.37,0,0,0,8-3.12,16.3,16.3,0,0,0,5.41-6,20.18,20.18,0,0,0,2-9.53,21.27,21.27,0,0,0-1.94-9.61,15.89,15.89,0,0,0-5.39-6.17,24.12,24.12,0,0,0-8.15-3.36,45.41,45.41,0,0,0-10-1H679v39.73Z"/><polygon class="cls-3" points="851.06 225.08 815.6 225.08 815.6 324.89 802.55 324.89 802.55 225.08 767.09 225.08 767.09 212.74 851.06 212.74 851.06 225.08"/><path class="cls-3" d="M449,1.93a78.07,78.07,0,0,1,32.14,6.7,83.75,83.75,0,0,1,26.25,18.23,86.81,86.81,0,0,1,17.7,26.94,83.6,83.6,0,0,1,6.5,32.81,83.61,83.61,0,0,1-6.5,32.82,86.65,86.65,0,0,1-17.7,26.93,82.13,82.13,0,0,1-26.25,18.11,81.69,81.69,0,0,1-64.29,0,82.24,82.24,0,0,1-26.25-18.11,86.65,86.65,0,0,1-17.7-26.93,83.61,83.61,0,0,1-6.5-32.82,83.6,83.6,0,0,1,6.5-32.81,86.81,86.81,0,0,1,17.7-26.94A83.87,83.87,0,0,1,416.85,8.63,78.09,78.09,0,0,1,449,1.93m0,31.28a43.3,43.3,0,0,0-18.79,4.12,46.22,46.22,0,0,0-15,11.41,56.51,56.51,0,0,0-10.11,16.93,57.53,57.53,0,0,0-3.73,20.94,57.4,57.4,0,0,0,3.73,20.93,54.73,54.73,0,0,0,10.11,16.82,46.89,46.89,0,0,0,15,11.3,45,45,0,0,0,37.57,0,46.89,46.89,0,0,0,15.05-11.3,54.73,54.73,0,0,0,10.11-16.82,57.41,57.41,0,0,0,3.74-20.93,57.54,57.54,0,0,0-3.74-20.94,56.51,56.51,0,0,0-10.11-16.93,46.22,46.22,0,0,0-15.05-11.41A43.29,43.29,0,0,0,449,33.21"/><polygon class="cls-4" points="551.77 171.78 589.03 171.78 589.03 103.63 657.47 103.63 657.47 68.58 589.03 68.58 589.03 37.84 665.35 37.84 665.35 2.78 551.77 2.78 551.77 171.78"/><rect class="cls-4" x="687.34" y="2.78" width="37.26" height="169"/><polygon class="cls-4" points="742.36 2.78 742.36 37.84 790.15 37.84 790.15 171.78 827.41 171.78 827.41 37.84 875.2 37.84 875.2 2.78 742.36 2.78"/><path class="cls-3" d="M349.82,73.39a81.72,81.72,0,0,0-5.37-18.7,86.3,86.3,0,0,0-17.7-26.93A83.71,83.71,0,0,0,300.51,9.53a78.13,78.13,0,0,0-32.15-6.71A80.22,80.22,0,0,0,249.77,5q-.86.19-1.71.42l-.63.17L245.81,6c-.51.15-1,.3-1.52.47-.71.22-1.42.46-2.12.7q-3,1.05-6,2.36A83.71,83.71,0,0,0,210,27.76a86.3,86.3,0,0,0-17.7,26.93,83.43,83.43,0,0,0-6.5,32.82,83.42,83.42,0,0,0,6.5,32.81c.54,1.28,1.1,2.55,1.69,3.79.22.46.44.93.68,1.38A84.26,84.26,0,0,0,236.34,165a79.53,79.53,0,0,0,32.34,6.72,92.27,92.27,0,0,0,15.26-1.24,77.58,77.58,0,0,0,16.57-5.13,82,82,0,0,0,26.24-18.12,86.3,86.3,0,0,0,17.7-26.93,81.94,81.94,0,0,0,3.63-10.61h-39l-.38,1.27a33.85,33.85,0,0,1-4.93,10,39.64,39.64,0,0,1-8.35,8.48A40.75,40.75,0,0,1,284,135.37a45.83,45.83,0,0,1-32.47-1.65A46.84,46.84,0,0,1,236.78,123a50.08,50.08,0,0,1-9.91-16,51.23,51.23,0,0,1-2-6.59H350c.15-1,.29-2,.39-3.08a87.2,87.2,0,0,0,.54-9.76,86.25,86.25,0,0,0-1.13-14.12m-123-6.06s0-.09,0-.14a49,49,0,0,1,9.9-15.9,47.54,47.54,0,0,1,14.76-10.65,43.41,43.41,0,0,1,18.33-3.86c12.23,0,21.94,3,28.88,8.79,6.46,5.42,10.75,12.74,12.77,21.76Z"/><path class="cls-3" d="M168,82.09V89c0,1.86,0,3.68-.12,5.48a82.13,82.13,0,0,1-6.23,25.73A86.45,86.45,0,0,1,144,147.15a82.1,82.1,0,0,1-26.25,18.12,79,79,0,0,1-31.22,6.57,83.31,83.31,0,0,1-58.81-24.72A87.18,87.18,0,0,1,9.75,120.21,82.46,82.46,0,0,1,3.12,87.4,83.81,83.81,0,0,1,9.63,54.6,84.58,84.58,0,0,1,53.93,9.44a79.47,79.47,0,0,1,32-6.71,78.09,78.09,0,0,1,31.79,6.69A83.73,83.73,0,0,1,144,27.66a86.45,86.45,0,0,1,17.69,26.93,80.44,80.44,0,0,1,3.52,10.17H126.65l-.38-1.28a34.2,34.2,0,0,0-4.94-10A39.41,39.41,0,0,0,113,45a41,41,0,0,0-11.39-5.95,45.89,45.89,0,0,0-32.46,1.66A46.57,46.57,0,0,0,54.37,51.51a49.88,49.88,0,0,0-9.9,16A54.72,54.72,0,0,0,40.93,87.4a54.69,54.69,0,0,0,3.54,19.87,48.63,48.63,0,0,0,9.89,15.9,47.42,47.42,0,0,0,14.77,10.65,43.18,43.18,0,0,0,18.32,3.86c9.69,0,17.8-1.85,24.2-5.53a30.94,30.94,0,0,0,4.68-3.25A36.92,36.92,0,0,0,127,114a44.09,44.09,0,0,0,2.11-6.85H85.64v-33h81.52c.41,2.62.69,5.27.84,8"/></g></g></svg>