<svg id="Calque_1" data-name="Calque 1" xmlns="http://www.w3.org/2000/svg" xmlns:xlink="http://www.w3.org/1999/xlink" viewBox="0 0 877.05 328.76"><defs><style>.cls-1{fill:none;}.cls-2{clip-path:url(#clip-path);}.cls-3{fill:#2b3181;}.cls-4{fill:#38a8e0;}.cls-5{fill:#4a4a49;}.cls-6{clip-path:url(#clip-path-3);}</style><clipPath id="clip-path"><rect class="cls-1" width="877.05" height="328.76"/></clipPath><clipPath id="clip-path-3"><rect class="cls-1" width="877.05" height="173.76"/></clipPath></defs><g class="cls-2"><g class="cls-2"><path class="cls-3" d="M447.87,2.32A78.13,78.13,0,0,1,480,9a83.87,83.87,0,0,1,26.25,18.23A86.45,86.45,0,0,1,524,54.19,83.44,83.44,0,0,1,530.47,87,83.43,83.43,0,0,1,524,119.82a86.45,86.45,0,0,1-17.69,26.93A82.1,82.1,0,0,1,480,164.87a81.83,81.83,0,0,1-64.3,0,82,82,0,0,1-26.24-18.12,86.3,86.3,0,0,1-17.7-26.93A83.42,83.42,0,0,1,365.28,87a83.43,83.43,0,0,1,6.5-32.82,86.3,86.3,0,0,1,17.7-26.93A83.71,83.71,0,0,1,415.72,9a78.13,78.13,0,0,1,32.15-6.71m0,31.29a43.28,43.28,0,0,0-18.78,4.11,46.12,46.12,0,0,0-15,11.41,56.15,56.15,0,0,0-10.11,16.94A57.5,57.5,0,0,0,400.19,87a57.48,57.48,0,0,0,3.74,20.93A54.46,54.46,0,0,0,414,124.76a46.61,46.61,0,0,0,15,11.29,44.86,44.86,0,0,0,37.56,0,46.61,46.61,0,0,0,15.05-11.29,54.68,54.68,0,0,0,10.12-16.82A57.69,57.69,0,0,0,495.55,87a57.71,57.71,0,0,0-3.73-20.94A56.38,56.38,0,0,0,481.7,49.13a46.12,46.12,0,0,0-15.05-11.41,43.28,43.28,0,0,0-18.78-4.11"/><polygon class="cls-4" points="550.65 172.18 587.91 172.18 587.91 104.03 656.34 104.03 656.34 68.97 587.91 68.97 587.91 38.23 664.23 38.23 664.23 3.18 550.65 3.18 550.65 172.18"/><rect class="cls-4" x="686.22" y="3.18" width="37.26" height="169"/><polygon class="cls-4" points="741.24 3.18 741.24 38.23 789.02 38.23 789.02 172.18 826.28 172.18 826.28 38.23 874.07 38.23 874.07 3.18 741.24 3.18"/><path class="cls-5" d="M283.88,275.42V263.64h55.59v4.78a65.59,65.59,0,0,1-4.32,24.6,51.39,51.39,0,0,1-11.9,18.08,50.67,50.67,0,0,1-18,11.15,65.56,65.56,0,0,1-22.66,3.82,57.54,57.54,0,0,1-40.92-16.72,58.11,58.11,0,0,1-12.31-18.16,57.52,57.52,0,0,1,0-44.51,57.67,57.67,0,0,1,12.31-18.24,58.32,58.32,0,0,1,18.42-12.34,56.91,56.91,0,0,1,22.67-4.54,59.35,59.35,0,0,1,19.15,2.95,56.88,56.88,0,0,1,15.65,8,52.25,52.25,0,0,1,11.82,12A60,60,0,0,1,337,249.46H322.84a38.05,38.05,0,0,0-5.54-9.71,40.94,40.94,0,0,0-8.64-8.2,42.24,42.24,0,0,0-11.5-5.66,45.6,45.6,0,0,0-13.94-2.07,45,45,0,0,0-17.85,3.51,44.43,44.43,0,0,0-14.26,9.55,45.18,45.18,0,0,0-9.54,14.26,44.62,44.62,0,0,0-3.5,17.75,45.64,45.64,0,0,0,13,32.17,44.06,44.06,0,0,0,31.54,13.06,47.85,47.85,0,0,0,17-2.94,41.38,41.38,0,0,0,13.53-8.2,39.69,39.69,0,0,0,9.05-12.35,38.91,38.91,0,0,0,3.66-15.21Z"/><path class="cls-5" d="M388.33,324.56H375.12V213.07h42.55a65.81,65.81,0,0,1,15.08,1.67,33.73,33.73,0,0,1,12.39,5.58,27.72,27.72,0,0,1,8.4,10.11q3.09,6.21,3.1,15.29a32.7,32.7,0,0,1-2.45,13.22,26,26,0,0,1-6.76,9.32,30.76,30.76,0,0,1-10,5.73,47.49,47.49,0,0,1-12.23,2.47l33.42,48.1H444.25L410.83,277.1h-22.5ZM418,264.83a53.52,53.52,0,0,0,9.86-.87,22.15,22.15,0,0,0,8.07-3.11,16.29,16.29,0,0,0,5.46-6,19.66,19.66,0,0,0,2-9.48,20.9,20.9,0,0,0-1.95-9.55,15.88,15.88,0,0,0-5.47-6.13,24.18,24.18,0,0,0-8.23-3.35,47.19,47.19,0,0,0-10.11-1H388.33v39.49Z"/><path class="cls-5" d="M485.29,268.89a55.63,55.63,0,0,1,4.49-22.21,57.5,57.5,0,0,1,12.31-18.24,58.63,58.63,0,0,1,18.26-12.34,57.8,57.8,0,0,1,44.91,0A58.17,58.17,0,0,1,596,246.68a56.47,56.47,0,0,1,0,44.51,59,59,0,0,1-12.39,18.15,57.49,57.49,0,0,1-40.76,16.73,56.64,56.64,0,0,1-22.49-4.46,57.68,57.68,0,0,1-30.57-30.42,55.47,55.47,0,0,1-4.49-22.3m13.21-.08a44.7,44.7,0,0,0,3.5,17.73,46.64,46.64,0,0,0,9.46,14.31,42.44,42.44,0,0,0,14,9.54,45.92,45.92,0,0,0,34.73,0,43.41,43.41,0,0,0,14.1-9.54,46,46,0,0,0,9.53-14.31,46.51,46.51,0,0,0,0-35.45,44.53,44.53,0,0,0-23.63-23.77,44.83,44.83,0,0,0-34.73,0,44,44,0,0,0-14,9.54A45.68,45.68,0,0,0,502,251.09a44.69,44.69,0,0,0-3.5,17.72"/><path class="cls-5" d="M679.9,313a36.68,36.68,0,0,0,14.67-2.63,25.48,25.48,0,0,0,9.87-7.4A30.07,30.07,0,0,0,710,291.67a55.84,55.84,0,0,0,1.71-14.18V212.36H724.9v65.13a64.18,64.18,0,0,1-2.69,19,41.36,41.36,0,0,1-8.32,15.12,38,38,0,0,1-14.1,10,57,57,0,0,1-39.78,0,37.17,37.17,0,0,1-14-10,42.87,42.87,0,0,1-8.32-15.12,62.56,62.56,0,0,1-2.77-19V212.36h13.21v65.13a55.84,55.84,0,0,0,1.71,14.18A30.07,30.07,0,0,0,655.36,303a25.48,25.48,0,0,0,9.87,7.4A36.68,36.68,0,0,0,679.9,313"/><path class="cls-5" d="M779.1,324.56H765.9V213.07h43.2a61.61,61.61,0,0,1,15.16,1.83,33.45,33.45,0,0,1,12.39,5.9A28.92,28.92,0,0,1,845,231.31,36.08,36.08,0,0,1,848.06,247a34.52,34.52,0,0,1-2.93,14.82A27.29,27.29,0,0,1,837,272a34.29,34.29,0,0,1-12.31,5.81,60.88,60.88,0,0,1-15.25,1.83H779.1Zm30.32-56.7a41.86,41.86,0,0,0,9.87-1.12,22.59,22.59,0,0,0,8.07-3.58,17.68,17.68,0,0,0,5.46-6.53,22,22,0,0,0,2-9.95,23.47,23.47,0,0,0-2-10,17.36,17.36,0,0,0-5.38-6.68,22.91,22.91,0,0,0-8.15-3.75A42.19,42.19,0,0,0,809.1,225h-30v42.84Z"/><path class="cls-3" d="M283.88,275.42V263.64h55.59v4.78a65.59,65.59,0,0,1-4.32,24.6,51.39,51.39,0,0,1-11.9,18.08,50.67,50.67,0,0,1-18,11.15,65.56,65.56,0,0,1-22.66,3.82,57.54,57.54,0,0,1-40.92-16.72,58.11,58.11,0,0,1-12.31-18.16,57.52,57.52,0,0,1,0-44.51,57.67,57.67,0,0,1,12.31-18.24,58.32,58.32,0,0,1,18.42-12.34,56.91,56.91,0,0,1,22.67-4.54,59.35,59.35,0,0,1,19.15,2.95,56.88,56.88,0,0,1,15.65,8,52.25,52.25,0,0,1,11.82,12A60,60,0,0,1,337,249.46H322.84a38.05,38.05,0,0,0-5.54-9.71,40.94,40.94,0,0,0-8.64-8.2,42.24,42.24,0,0,0-11.5-5.66,45.6,45.6,0,0,0-13.94-2.07,45,45,0,0,0-17.85,3.51,44.43,44.43,0,0,0-14.26,9.55,45.18,45.18,0,0,0-9.54,14.26,44.62,44.62,0,0,0-3.5,17.75,45.64,45.64,0,0,0,13,32.17,44.06,44.06,0,0,0,31.54,13.06,47.85,47.85,0,0,0,17-2.94,41.38,41.38,0,0,0,13.53-8.2,39.69,39.69,0,0,0,9.05-12.35,38.91,38.91,0,0,0,3.66-15.21Z"/><path class="cls-3" d="M388.33,324.56H375.12V213.07h42.55a65.81,65.81,0,0,1,15.08,1.67,33.73,33.73,0,0,1,12.39,5.58,27.72,27.72,0,0,1,8.4,10.11q3.09,6.21,3.1,15.29a32.7,32.7,0,0,1-2.45,13.22,26,26,0,0,1-6.76,9.32,30.76,30.76,0,0,1-10,5.73,47.49,47.49,0,0,1-12.23,2.47l33.42,48.1H444.25L410.83,277.1h-22.5ZM418,264.83a53.52,53.52,0,0,0,9.86-.87,22.15,22.15,0,0,0,8.07-3.11,16.29,16.29,0,0,0,5.46-6,19.66,19.66,0,0,0,2-9.48,20.9,20.9,0,0,0-1.95-9.55,15.88,15.88,0,0,0-5.47-6.13,24.18,24.18,0,0,0-8.23-3.35,47.19,47.19,0,0,0-10.11-1H388.33v39.49Z"/><path class="cls-3" d="M485.29,268.89a55.63,55.63,0,0,1,4.49-22.21,57.5,57.5,0,0,1,12.31-18.24,58.63,58.63,0,0,1,18.26-12.34,57.8,57.8,0,0,1,44.91,0A58.17,58.17,0,0,1,596,246.68a56.47,56.47,0,0,1,0,44.51,59,59,0,0,1-12.39,18.15,57.49,57.49,0,0,1-40.76,16.73,56.64,56.64,0,0,1-22.49-4.46,57.68,57.68,0,0,1-30.57-30.42,55.47,55.47,0,0,1-4.49-22.3m13.21-.08a44.7,44.7,0,0,0,3.5,17.73,46.64,46.64,0,0,0,9.46,14.31,42.44,42.44,0,0,0,14,9.54,45.92,45.92,0,0,0,34.73,0,43.41,43.41,0,0,0,14.1-9.54,46,46,0,0,0,9.53-14.31,46.51,46.51,0,0,0,0-35.45,44.53,44.53,0,0,0-23.63-23.77,44.83,44.83,0,0,0-34.73,0,44,44,0,0,0-14,9.54A45.68,45.68,0,0,0,502,251.09a44.69,44.69,0,0,0-3.5,17.72"/><path class="cls-3" d="M679.9,313a36.68,36.68,0,0,0,14.67-2.63,25.48,25.48,0,0,0,9.87-7.4A30.07,30.07,0,0,0,710,291.67a55.84,55.84,0,0,0,1.71-14.18V212.36H724.9v65.13a64.18,64.18,0,0,1-2.69,19,41.36,41.36,0,0,1-8.32,15.12,38,38,0,0,1-14.1,10,57,57,0,0,1-39.78,0,37.17,37.17,0,0,1-14-10,42.87,42.87,0,0,1-8.32-15.12,62.56,62.56,0,0,1-2.77-19V212.36h13.21v65.13a55.84,55.84,0,0,0,1.71,14.18A30.07,30.07,0,0,0,655.36,303a25.48,25.48,0,0,0,9.87,7.4A36.68,36.68,0,0,0,679.9,313"/><path class="cls-3" d="M779.1,324.56H765.9V213.07h43.2a61.61,61.61,0,0,1,15.16,1.83,33.45,33.45,0,0,1,12.39,5.9A28.92,28.92,0,0,1,845,231.31,36.08,36.08,0,0,1,848.06,247a34.52,34.52,0,0,1-2.93,14.82A27.29,27.29,0,0,1,837,272a34.29,34.29,0,0,1-12.31,5.81,60.88,60.88,0,0,1-15.25,1.83H779.1Zm30.32-56.7a41.86,41.86,0,0,0,9.87-1.12,22.59,22.59,0,0,0,8.07-3.58,17.68,17.68,0,0,0,5.46-6.53,22,22,0,0,0,2-9.95,23.47,23.47,0,0,0-2-10,17.36,17.36,0,0,0-5.38-6.68,22.91,22.91,0,0,0-8.15-3.75A42.19,42.19,0,0,0,809.1,225h-30v42.84Z"/><path class="cls-3" d="M348.69,73.79a81.72,81.72,0,0,0-5.37-18.7,86.3,86.3,0,0,0-17.7-26.93A83.71,83.71,0,0,0,299.38,9.93a78.13,78.13,0,0,0-32.15-6.71,80.22,80.22,0,0,0-18.59,2.13l-1.71.42-.63.17-1.62.46c-.51.15-1,.3-1.52.47-.71.22-1.42.46-2.12.7q-3,1-6,2.36a83.71,83.71,0,0,0-26.24,18.23,86.3,86.3,0,0,0-17.7,26.93,83.43,83.43,0,0,0-6.5,32.82,83.42,83.42,0,0,0,6.5,32.81c.54,1.28,1.1,2.55,1.69,3.79.22.46.44.93.68,1.38a84.26,84.26,0,0,0,41.7,39.53,79.53,79.53,0,0,0,32.34,6.72,92.27,92.27,0,0,0,15.26-1.24,77.58,77.58,0,0,0,16.57-5.13,82,82,0,0,0,26.24-18.12,86.3,86.3,0,0,0,17.7-26.93A81.94,81.94,0,0,0,347,110.11h-39l-.38,1.27a33.85,33.85,0,0,1-4.93,10,39.64,39.64,0,0,1-8.35,8.48,40.75,40.75,0,0,1-11.39,5.94,45.83,45.83,0,0,1-32.47-1.65,46.84,46.84,0,0,1-14.75-10.76,50.08,50.08,0,0,1-9.91-16,51.23,51.23,0,0,1-2-6.59H348.89c.15-1,.29-2,.39-3.08a87.2,87.2,0,0,0,.54-9.76,86.25,86.25,0,0,0-1.13-14.12m-123-6.06s0-.09,0-.14a49,49,0,0,1,9.9-15.9A47.54,47.54,0,0,1,250.4,41a43.41,43.41,0,0,1,18.33-3.86c12.23,0,21.94,3,28.88,8.79,6.46,5.42,10.75,12.74,12.77,21.76Z"/></g></g><g class="cls-6"><g class="cls-6"><path class="cls-3" d="M448.12,1.93a78.12,78.12,0,0,1,32.15,6.7,83.87,83.87,0,0,1,26.25,18.23A86.61,86.61,0,0,1,524.21,53.8a83.43,83.43,0,0,1,6.51,32.81,83.44,83.44,0,0,1-6.51,32.82,86.45,86.45,0,0,1-17.69,26.93,82.24,82.24,0,0,1-26.25,18.11,81.72,81.72,0,0,1-64.3,0,82.08,82.08,0,0,1-26.24-18.11A86.3,86.3,0,0,1,372,119.43a83.43,83.43,0,0,1-6.5-32.82A83.42,83.42,0,0,1,372,53.8a86.46,86.46,0,0,1,17.7-26.94A83.71,83.71,0,0,1,416,8.63a78.12,78.12,0,0,1,32.15-6.7m0,31.28a43.29,43.29,0,0,0-18.78,4.12,46.12,46.12,0,0,0-15,11.41,56.1,56.1,0,0,0-10.11,16.93,57.54,57.54,0,0,0-3.74,20.94,57.41,57.41,0,0,0,3.74,20.93,54.35,54.35,0,0,0,10.11,16.82,46.78,46.78,0,0,0,15,11.3,45,45,0,0,0,37.56,0A46.78,46.78,0,0,0,482,124.36a54.56,54.56,0,0,0,10.12-16.82,57.61,57.61,0,0,0,3.73-20.93,57.74,57.74,0,0,0-3.73-20.94A56.32,56.32,0,0,0,482,48.74,46.12,46.12,0,0,0,466.9,37.33a43.29,43.29,0,0,0-18.78-4.12"/><polygon class="cls-4" points="550.9 171.78 588.16 171.78 588.16 103.63 656.59 103.63 656.59 68.58 588.16 68.58 588.16 37.84 664.48 37.84 664.48 2.78 550.9 2.78 550.9 171.78"/><rect class="cls-4" x="686.47" y="2.78" width="37.26" height="169"/><polygon class="cls-4" points="741.49 2.78 741.49 37.84 789.27 37.84 789.27 171.78 826.53 171.78 826.53 37.84 874.32 37.84 874.32 2.78 741.49 2.78"/><path class="cls-3" d="M348.94,73.39a81.72,81.72,0,0,0-5.37-18.7,86.3,86.3,0,0,0-17.7-26.93A83.71,83.71,0,0,0,299.63,9.53a78.13,78.13,0,0,0-32.15-6.71A80.22,80.22,0,0,0,248.89,5q-.85.19-1.71.42l-.63.17L244.93,6c-.51.15-1,.3-1.52.47-.71.22-1.42.46-2.12.7q-3,1.05-6,2.36a83.71,83.71,0,0,0-26.24,18.23,86.3,86.3,0,0,0-17.7,26.93,83.43,83.43,0,0,0-6.5,32.82,83.42,83.42,0,0,0,6.5,32.81c.54,1.28,1.1,2.55,1.69,3.79.22.46.44.93.68,1.38A84.26,84.26,0,0,0,235.46,165a79.53,79.53,0,0,0,32.34,6.72,92.27,92.27,0,0,0,15.26-1.24,77.58,77.58,0,0,0,16.57-5.13,82,82,0,0,0,26.24-18.12,86.3,86.3,0,0,0,17.7-26.93,81.94,81.94,0,0,0,3.63-10.61h-39l-.38,1.27a33.85,33.85,0,0,1-4.93,10,39.64,39.64,0,0,1-8.35,8.48,40.75,40.75,0,0,1-11.39,5.94,45.83,45.83,0,0,1-32.47-1.65A46.84,46.84,0,0,1,235.9,123a50.08,50.08,0,0,1-9.91-16,51.23,51.23,0,0,1-2-6.59H349.14c.15-1,.29-2,.39-3.08a87.2,87.2,0,0,0,.54-9.76,86.25,86.25,0,0,0-1.13-14.12M226,67.33s0-.09,0-.14a49,49,0,0,1,9.9-15.9,47.54,47.54,0,0,1,14.76-10.65A43.41,43.41,0,0,1,269,36.78c12.23,0,21.94,3,28.88,8.79,6.46,5.42,10.75,12.74,12.77,21.76Z"/><path class="cls-3" d="M167.12,82.09V89c0,1.86,0,3.68-.12,5.48a82.13,82.13,0,0,1-6.23,25.73,86.45,86.45,0,0,1-17.69,26.93,82.1,82.1,0,0,1-26.25,18.12,79,79,0,0,1-31.22,6.57A83.31,83.31,0,0,1,26.8,147.12,87.18,87.18,0,0,1,8.87,120.21,82.46,82.46,0,0,1,2.24,87.4,83.81,83.81,0,0,1,8.75,54.6,84.58,84.58,0,0,1,53.05,9.44,79.47,79.47,0,0,1,85,2.73a78.09,78.09,0,0,1,31.79,6.69,83.73,83.73,0,0,1,26.25,18.24,86.45,86.45,0,0,1,17.69,26.93,80.44,80.44,0,0,1,3.52,10.17H125.77l-.38-1.28a34.2,34.2,0,0,0-4.94-10A39.41,39.41,0,0,0,112.1,45a41,41,0,0,0-11.39-5.95,45.89,45.89,0,0,0-32.46,1.66A46.57,46.57,0,0,0,53.49,51.51a49.88,49.88,0,0,0-9.9,16A54.72,54.72,0,0,0,40.05,87.4a54.69,54.69,0,0,0,3.54,19.87,48.63,48.63,0,0,0,9.89,15.9,47.42,47.42,0,0,0,14.77,10.65,43.18,43.18,0,0,0,18.32,3.86c9.69,0,17.8-1.85,24.2-5.53a30.94,30.94,0,0,0,4.68-3.25A36.92,36.92,0,0,0,126.11,114a44.09,44.09,0,0,0,2.11-6.85H84.76v-33h81.52c.41,2.62.69,5.27.84,8"/></g></g></svg>