<svg id="Calque_1" data-name="Calque 1" xmlns="http://www.w3.org/2000/svg" viewBox="0 0 878.05 326.76"><defs><style>.cls-1{fill:#fff;}.cls-2{fill:#38a8e0;}</style></defs><polygon class="cls-1" points="222.1 225.05 222.1 259.5 276.57 259.5 276.57 271.83 222.1 271.83 222.1 312.52 281.57 312.52 281.57 324.86 209.05 324.86 209.05 212.72 281.57 212.72 281.57 225.05 222.1 225.05"/><polygon class="cls-1" points="354.9 256.29 387.77 212.72 402.28 212.72 362.15 265.9 406.79 324.86 392.28 324.86 354.9 275.51 317.67 324.86 303.16 324.86 347.64 265.9 307.67 212.72 322.18 212.72 354.9 256.29"/><path class="cls-1" d="M449.81,324.86H436.76V212.72h42.71a59.42,59.42,0,0,1,15,1.84,32.79,32.79,0,0,1,12.24,5.92,29.15,29.15,0,0,1,8.22,10.58A36.76,36.76,0,0,1,518,246.84a35.05,35.05,0,0,1-2.9,14.9A27.38,27.38,0,0,1,507,272a33.28,33.28,0,0,1-12.17,5.85,59,59,0,0,1-15.06,1.84h-30Zm30-57a41.43,41.43,0,0,0,9.75-1.11,22.26,22.26,0,0,0,8-3.61,17.71,17.71,0,0,0,5.4-6.57,22.52,22.52,0,0,0,2-10A23.62,23.62,0,0,0,503,236.43a17.32,17.32,0,0,0-5.32-6.73,22.1,22.1,0,0,0-8.05-3.76,40.29,40.29,0,0,0-10.15-1.21H449.81v43.09Z"/><polygon class="cls-1" points="567.61 225.05 567.61 259.5 622.09 259.5 622.09 271.83 567.61 271.83 567.61 312.52 627.08 312.52 627.08 324.86 554.56 324.86 554.56 212.72 627.08 212.72 627.08 225.05 567.61 225.05"/><path class="cls-1" d="M678.82,324.86H665.76V212.72h42.07a63.88,63.88,0,0,1,14.9,1.67A33.14,33.14,0,0,1,735,220a27.75,27.75,0,0,1,8.31,10.18q3.06,6.24,3.06,15.38a33.46,33.46,0,0,1-2.42,13.3,26,26,0,0,1-6.69,9.37,30.17,30.17,0,0,1-9.9,5.77,46.18,46.18,0,0,1-12.1,2.47l33,48.39H734.09l-33-47.74H678.82Zm29.33-60.08a51.43,51.43,0,0,0,9.74-.88,21.71,21.71,0,0,0,8-3.12,16.35,16.35,0,0,0,5.4-6,20.13,20.13,0,0,0,2-9.54,21.31,21.31,0,0,0-1.93-9.61,15.81,15.81,0,0,0-5.4-6.16,23.8,23.8,0,0,0-8.14-3.37,46.09,46.09,0,0,0-10-1h-29v39.73Z"/><polygon class="cls-1" points="850.93 225.05 815.47 225.05 815.47 324.86 802.42 324.86 802.42 225.05 766.96 225.05 766.96 212.72 850.93 212.72 850.93 225.05"/><path class="cls-1" d="M448.86,1.9A78.25,78.25,0,0,1,481,8.6a83.9,83.9,0,0,1,26.25,18.24A86.65,86.65,0,0,1,525,53.77a83.6,83.6,0,0,1,6.5,32.81A83.61,83.61,0,0,1,525,119.4a86.65,86.65,0,0,1-17.7,26.93A82.1,82.1,0,0,1,481,164.45a81.81,81.81,0,0,1-64.29,0,82,82,0,0,1-26.25-18.12,86.65,86.65,0,0,1-17.7-26.93,83.61,83.61,0,0,1-6.5-32.82,83.6,83.6,0,0,1,6.5-32.81,86.65,86.65,0,0,1,17.7-26.93A83.78,83.78,0,0,1,416.72,8.6a78.2,78.2,0,0,1,32.14-6.7m0,31.29a43.28,43.28,0,0,0-18.78,4.11A46.12,46.12,0,0,0,415,48.71a56.56,56.56,0,0,0-10.11,16.94,57.48,57.48,0,0,0-3.73,20.93,57.49,57.49,0,0,0,3.73,20.94A54.85,54.85,0,0,0,415,124.34a46.61,46.61,0,0,0,15.05,11.29,44.88,44.88,0,0,0,37.57,0,46.71,46.71,0,0,0,15.05-11.29,54.85,54.85,0,0,0,10.11-16.82,57.49,57.49,0,0,0,3.73-20.94,57.48,57.48,0,0,0-3.73-20.93A56.56,56.56,0,0,0,482.7,48.71,46.22,46.22,0,0,0,467.65,37.3a43.29,43.29,0,0,0-18.79-4.11"/><polygon class="cls-2" points="551.64 171.76 588.9 171.76 588.9 103.61 657.34 103.61 657.34 68.55 588.9 68.55 588.9 37.81 665.22 37.81 665.22 2.76 551.64 2.76 551.64 171.76"/><rect class="cls-2" x="687.21" y="2.76" width="37.26" height="169"/><polygon class="cls-2" points="742.23 2.76 742.23 37.81 790.01 37.81 790.01 171.76 827.28 171.76 827.28 37.81 875.06 37.81 875.06 2.76 742.23 2.76"/><path class="cls-1" d="M349.69,73.37a81.72,81.72,0,0,0-5.37-18.7,86.3,86.3,0,0,0-17.7-26.93A83.71,83.71,0,0,0,300.38,9.51,78.13,78.13,0,0,0,268.23,2.8a80.22,80.22,0,0,0-18.59,2.13l-1.71.42-.63.17L245.68,6c-.51.15-1,.3-1.52.47-.71.22-1.42.46-2.12.7q-3,1-6,2.36a83.71,83.71,0,0,0-26.24,18.23,86.3,86.3,0,0,0-17.7,26.93,83.43,83.43,0,0,0-6.5,32.82,83.42,83.42,0,0,0,6.5,32.81c.54,1.28,1.1,2.55,1.69,3.79.22.46.44.93.68,1.38A84.26,84.26,0,0,0,236.21,165a79.53,79.53,0,0,0,32.34,6.72,92.27,92.27,0,0,0,15.26-1.24,77.58,77.58,0,0,0,16.57-5.13,82,82,0,0,0,26.24-18.12,86.3,86.3,0,0,0,17.7-26.93A81.94,81.94,0,0,0,348,109.69h-39l-.38,1.27a33.85,33.85,0,0,1-4.93,10,39.64,39.64,0,0,1-8.35,8.48,40.75,40.75,0,0,1-11.39,5.94,45.83,45.83,0,0,1-32.47-1.65,46.84,46.84,0,0,1-14.75-10.76,50.08,50.08,0,0,1-9.91-16,51.23,51.23,0,0,1-2-6.59H349.89c.15-1,.29-2,.39-3.08a87.2,87.2,0,0,0,.54-9.76,86.25,86.25,0,0,0-1.13-14.12m-123-6.06s0-.09,0-.14a49,49,0,0,1,9.9-15.9A47.54,47.54,0,0,1,251.4,40.62a43.41,43.41,0,0,1,18.33-3.86c12.23,0,21.94,3,28.88,8.79,6.46,5.42,10.75,12.74,12.77,21.76Z"/><path class="cls-1" d="M167.87,82.06V89c0,1.86,0,3.68-.12,5.48a82.13,82.13,0,0,1-6.23,25.73,86.45,86.45,0,0,1-17.69,26.93,82.1,82.1,0,0,1-26.25,18.12,79,79,0,0,1-31.22,6.57,83.31,83.31,0,0,1-58.81-24.72A87.18,87.18,0,0,1,9.62,120.18,82.46,82.46,0,0,1,3,87.37,83.81,83.81,0,0,1,9.5,54.57,84.58,84.58,0,0,1,53.8,9.41a79.47,79.47,0,0,1,32-6.71,78.09,78.09,0,0,1,31.79,6.69,83.73,83.73,0,0,1,26.25,18.24,86.45,86.45,0,0,1,17.69,26.93A80.44,80.44,0,0,1,165,64.73H126.52l-.38-1.28a34.2,34.2,0,0,0-4.94-10A39.41,39.41,0,0,0,112.85,45a41,41,0,0,0-11.39-5.95A45.89,45.89,0,0,0,69,40.72,46.57,46.57,0,0,0,54.24,51.48a49.88,49.88,0,0,0-9.9,16A54.72,54.72,0,0,0,40.8,87.37a54.69,54.69,0,0,0,3.54,19.87,48.63,48.63,0,0,0,9.89,15.9A47.42,47.42,0,0,0,69,133.79a43.18,43.18,0,0,0,18.32,3.86c9.69,0,17.8-1.85,24.2-5.53a30.94,30.94,0,0,0,4.68-3.25A36.92,36.92,0,0,0,126.86,114,44.09,44.09,0,0,0,129,107.1H85.51v-33H167c.41,2.62.69,5.27.84,8"/></svg>