<svg id="Calque_1" data-name="Calque 1" xmlns="http://www.w3.org/2000/svg" viewBox="0 0 877.05 328.76"><defs><style>.cls-1{fill:#fff;}.cls-2{fill:#38a8e0;}</style></defs><path class="cls-1" d="M283.67,275.52V263.74h55.59v4.78a65.55,65.55,0,0,1-4.32,24.6A51.39,51.39,0,0,1,323,311.2a50.67,50.67,0,0,1-18,11.15,65.52,65.52,0,0,1-22.66,3.82,57.54,57.54,0,0,1-40.92-16.72,58,58,0,0,1-12.31-18.16,57.52,57.52,0,0,1,0-44.51,57.43,57.43,0,0,1,30.74-30.58,56.83,56.83,0,0,1,22.66-4.54,59.35,59.35,0,0,1,19.15,3,56.88,56.88,0,0,1,15.65,8,52.29,52.29,0,0,1,11.82,12,59.34,59.34,0,0,1,7.66,14.89H322.63a37.94,37.94,0,0,0-5.54-9.72,40.46,40.46,0,0,0-8.64-8.2A42.17,42.17,0,0,0,297,226,45.7,45.7,0,0,0,283,223.93a45.06,45.06,0,0,0-17.86,3.5A44.43,44.43,0,0,0,250.9,237a46,46,0,0,0-.08,64.18,44.06,44.06,0,0,0,31.54,13.06,47.63,47.63,0,0,0,17-2.94,41,41,0,0,0,13.53-8.2,39.69,39.69,0,0,0,9-12.35,39.1,39.1,0,0,0,3.67-15.21Z"/><path class="cls-1" d="M388.12,324.66H374.91V213.17h42.56a65.31,65.31,0,0,1,15.08,1.68,33.7,33.7,0,0,1,12.39,5.57,27.7,27.7,0,0,1,8.39,10.11q3.09,6.21,3.1,15.29A32.7,32.7,0,0,1,454,259a25.89,25.89,0,0,1-6.76,9.32,30.48,30.48,0,0,1-10,5.73A47.41,47.41,0,0,1,425,276.56l33.42,48.1H444L410.62,277.2h-22.5Zm29.67-59.73a53.44,53.44,0,0,0,9.86-.87,22,22,0,0,0,8.07-3.11,16.15,16.15,0,0,0,5.47-6,19.75,19.75,0,0,0,2-9.48,20.9,20.9,0,0,0-2-9.55,15.88,15.88,0,0,0-5.47-6.13,24.18,24.18,0,0,0-8.23-3.35,47.16,47.16,0,0,0-10.1-1H388.12v39.49Z"/><path class="cls-1" d="M485.09,269a55.62,55.62,0,0,1,4.48-22.21,57.5,57.5,0,0,1,12.31-18.24,58.8,58.8,0,0,1,18.26-12.34,57.8,57.8,0,0,1,44.91,0,58.17,58.17,0,0,1,30.73,30.58,56.47,56.47,0,0,1,0,44.51,59,59,0,0,1-12.39,18.16,57.48,57.48,0,0,1-18.34,12.26,58.76,58.76,0,0,1-44.91,0,57.59,57.59,0,0,1-30.57-30.42,55.46,55.46,0,0,1-4.48-22.3m13.2-.08a44.5,44.5,0,0,0,3.51,17.73A46.44,46.44,0,0,0,511.25,301a42.44,42.44,0,0,0,14,9.54,45.92,45.92,0,0,0,34.73,0A43.3,43.3,0,0,0,574.1,301a46,46,0,0,0,9.54-14.31A45.05,45.05,0,0,0,560,227.42a44.95,44.95,0,0,0-34.73,0,44,44,0,0,0-14,9.54,45.48,45.48,0,0,0-9.45,14.23,44.52,44.52,0,0,0-3.51,17.72"/><path class="cls-1" d="M679.69,313.11a36.68,36.68,0,0,0,14.67-2.63,25.48,25.48,0,0,0,9.87-7.4,30.07,30.07,0,0,0,5.54-11.31,55.81,55.81,0,0,0,1.71-14.17V212.46h13.21V277.6a64.16,64.16,0,0,1-2.69,19,41.4,41.4,0,0,1-8.32,15.13,38,38,0,0,1-14.1,10,57,57,0,0,1-39.78,0,37.34,37.34,0,0,1-14-10,42.89,42.89,0,0,1-8.31-15.13,62.24,62.24,0,0,1-2.77-19V212.46h13.2V277.6a55.81,55.81,0,0,0,1.71,14.17,29.94,29.94,0,0,0,5.55,11.31,25.37,25.37,0,0,0,9.86,7.4,36.68,36.68,0,0,0,14.67,2.63"/><path class="cls-1" d="M778.89,324.66h-13.2V213.17h43.2A61.13,61.13,0,0,1,824.05,215a33.28,33.28,0,0,1,12.39,5.89,28.92,28.92,0,0,1,8.32,10.51,36.1,36.1,0,0,1,3.09,15.69,34.35,34.35,0,0,1-2.93,14.81,27.29,27.29,0,0,1-8.15,10.19,34,34,0,0,1-12.31,5.81,60.85,60.85,0,0,1-15.24,1.84H778.89ZM809.22,268a42.38,42.38,0,0,0,9.86-1.11,22.7,22.7,0,0,0,8.07-3.59,17.6,17.6,0,0,0,5.46-6.53,22,22,0,0,0,2-10,23.32,23.32,0,0,0-2-10,17.43,17.43,0,0,0-5.38-6.68,22.91,22.91,0,0,0-8.15-3.75,42.19,42.19,0,0,0-10.27-1.19h-30V268Z"/><path class="cls-1" d="M283.67,275.52V263.74h55.59v4.78a65.55,65.55,0,0,1-4.32,24.6A51.39,51.39,0,0,1,323,311.2a50.67,50.67,0,0,1-18,11.15,65.52,65.52,0,0,1-22.66,3.82,57.54,57.54,0,0,1-40.92-16.72,58,58,0,0,1-12.31-18.16,57.52,57.52,0,0,1,0-44.51,57.43,57.43,0,0,1,30.74-30.58,56.83,56.83,0,0,1,22.66-4.54,59.35,59.35,0,0,1,19.15,3,56.88,56.88,0,0,1,15.65,8,52.29,52.29,0,0,1,11.82,12,59.34,59.34,0,0,1,7.66,14.89H322.63a37.94,37.94,0,0,0-5.54-9.72,40.46,40.46,0,0,0-8.64-8.2A42.17,42.17,0,0,0,297,226,45.7,45.7,0,0,0,283,223.93a45.06,45.06,0,0,0-17.86,3.5A44.43,44.43,0,0,0,250.9,237a46,46,0,0,0-.08,64.18,44.06,44.06,0,0,0,31.54,13.06,47.63,47.63,0,0,0,17-2.94,41,41,0,0,0,13.53-8.2,39.69,39.69,0,0,0,9-12.35,39.1,39.1,0,0,0,3.67-15.21Z"/><path class="cls-1" d="M388.12,324.66H374.91V213.17h42.56a65.31,65.31,0,0,1,15.08,1.68,33.7,33.7,0,0,1,12.39,5.57,27.7,27.7,0,0,1,8.39,10.11q3.09,6.21,3.1,15.29A32.7,32.7,0,0,1,454,259a25.89,25.89,0,0,1-6.76,9.32,30.48,30.48,0,0,1-10,5.73A47.41,47.41,0,0,1,425,276.56l33.42,48.1H444L410.62,277.2h-22.5Zm29.67-59.73a53.44,53.44,0,0,0,9.86-.87,22,22,0,0,0,8.07-3.11,16.15,16.15,0,0,0,5.47-6,19.75,19.75,0,0,0,2-9.48,20.9,20.9,0,0,0-2-9.55,15.88,15.88,0,0,0-5.47-6.13,24.18,24.18,0,0,0-8.23-3.35,47.16,47.16,0,0,0-10.1-1H388.12v39.49Z"/><path class="cls-1" d="M485.09,269a55.62,55.62,0,0,1,4.48-22.21,57.5,57.5,0,0,1,12.31-18.24,58.8,58.8,0,0,1,18.26-12.34,57.8,57.8,0,0,1,44.91,0,58.17,58.17,0,0,1,30.73,30.58,56.47,56.47,0,0,1,0,44.51,59,59,0,0,1-12.39,18.16,57.48,57.48,0,0,1-18.34,12.26,58.76,58.76,0,0,1-44.91,0,57.59,57.59,0,0,1-30.57-30.42,55.46,55.46,0,0,1-4.48-22.3m13.2-.08a44.5,44.5,0,0,0,3.51,17.73A46.44,46.44,0,0,0,511.25,301a42.44,42.44,0,0,0,14,9.54,45.92,45.92,0,0,0,34.73,0A43.3,43.3,0,0,0,574.1,301a46,46,0,0,0,9.54-14.31A45.05,45.05,0,0,0,560,227.42a44.95,44.95,0,0,0-34.73,0,44,44,0,0,0-14,9.54,45.48,45.48,0,0,0-9.45,14.23,44.52,44.52,0,0,0-3.51,17.72"/><path class="cls-1" d="M679.69,313.11a36.68,36.68,0,0,0,14.67-2.63,25.48,25.48,0,0,0,9.87-7.4,30.07,30.07,0,0,0,5.54-11.31,55.81,55.81,0,0,0,1.71-14.17V212.46h13.21V277.6a64.16,64.16,0,0,1-2.69,19,41.4,41.4,0,0,1-8.32,15.13,38,38,0,0,1-14.1,10,57,57,0,0,1-39.78,0,37.34,37.34,0,0,1-14-10,42.89,42.89,0,0,1-8.31-15.13,62.24,62.24,0,0,1-2.77-19V212.46h13.2V277.6a55.81,55.81,0,0,0,1.71,14.17,29.94,29.94,0,0,0,5.55,11.31,25.37,25.37,0,0,0,9.86,7.4,36.68,36.68,0,0,0,14.67,2.63"/><path class="cls-1" d="M778.89,324.66h-13.2V213.17h43.2A61.13,61.13,0,0,1,824.05,215a33.28,33.28,0,0,1,12.39,5.89,28.92,28.92,0,0,1,8.32,10.51,36.1,36.1,0,0,1,3.09,15.69,34.35,34.35,0,0,1-2.93,14.81,27.29,27.29,0,0,1-8.15,10.19,34,34,0,0,1-12.31,5.81,60.85,60.85,0,0,1-15.24,1.84H778.89ZM809.22,268a42.38,42.38,0,0,0,9.86-1.11,22.7,22.7,0,0,0,8.07-3.59,17.6,17.6,0,0,0,5.46-6.53,22,22,0,0,0,2-10,23.32,23.32,0,0,0-2-10,17.43,17.43,0,0,0-5.38-6.68,22.91,22.91,0,0,0-8.15-3.75,42.19,42.19,0,0,0-10.27-1.19h-30V268Z"/><path class="cls-1" d="M447.66,2.34a78.13,78.13,0,0,1,32.15,6.71,83.87,83.87,0,0,1,26.25,18.23,86.56,86.56,0,0,1,17.69,26.93A83.48,83.48,0,0,1,530.26,87a83.39,83.39,0,0,1-6.51,32.81,86.49,86.49,0,0,1-17.69,26.94,82.24,82.24,0,0,1-26.25,18.11,81.69,81.69,0,0,1-64.29,0,82.13,82.13,0,0,1-26.25-18.11,86.52,86.52,0,0,1-17.7-26.94A83.56,83.56,0,0,1,365.07,87a83.65,83.65,0,0,1,6.5-32.82,86.59,86.59,0,0,1,17.7-26.93A83.75,83.75,0,0,1,415.52,9.05a78,78,0,0,1,32.14-6.71m0,31.29a43.29,43.29,0,0,0-18.78,4.12,46,46,0,0,0-15.05,11.41,56.18,56.18,0,0,0-10.11,16.93A57.49,57.49,0,0,0,400,87,57.44,57.44,0,0,0,403.72,108a54.66,54.66,0,0,0,10.11,16.82,46.61,46.61,0,0,0,15.05,11.29,44.88,44.88,0,0,0,37.57,0,46.67,46.67,0,0,0,15-11.29A54.68,54.68,0,0,0,491.61,108,57.44,57.44,0,0,0,495.34,87a57.49,57.49,0,0,0-3.73-20.94,56.2,56.2,0,0,0-10.12-16.93,46,46,0,0,0-15-11.41,43.3,43.3,0,0,0-18.79-4.12"/><polygon class="cls-2" points="550.44 172.2 587.7 172.2 587.7 104.05 656.13 104.05 656.13 69 587.7 69 587.7 38.26 664.02 38.26 664.02 3.2 550.44 3.2 550.44 172.2"/><rect class="cls-2" x="686.01" y="3.2" width="37.26" height="169"/><polygon class="cls-2" points="741.03 3.2 741.03 38.25 788.81 38.25 788.81 172.2 826.08 172.2 826.08 38.25 873.86 38.25 873.86 3.2 741.03 3.2"/><path class="cls-1" d="M348.48,73.81a81.72,81.72,0,0,0-5.37-18.7,86.3,86.3,0,0,0-17.7-26.93A83.71,83.71,0,0,0,299.17,10,78.13,78.13,0,0,0,267,3.24a80.22,80.22,0,0,0-18.59,2.13q-.85.19-1.71.42l-.63.17-1.62.46c-.51.15-1,.3-1.52.47-.71.22-1.42.46-2.12.7q-3,1-6,2.36a83.71,83.71,0,0,0-26.24,18.23,86.3,86.3,0,0,0-17.7,26.93,83.43,83.43,0,0,0-6.5,32.82,83.42,83.42,0,0,0,6.5,32.81c.54,1.28,1.1,2.55,1.69,3.79.22.46.44.93.68,1.38A84.26,84.26,0,0,0,235,165.44a79.53,79.53,0,0,0,32.34,6.72,92.27,92.27,0,0,0,15.26-1.24,77.58,77.58,0,0,0,16.57-5.13,82,82,0,0,0,26.24-18.12,86.3,86.3,0,0,0,17.7-26.93,81.94,81.94,0,0,0,3.63-10.61h-39l-.38,1.27a33.85,33.85,0,0,1-4.93,10,39.64,39.64,0,0,1-8.35,8.48,40.75,40.75,0,0,1-11.39,5.94,45.83,45.83,0,0,1-32.47-1.65,46.84,46.84,0,0,1-14.75-10.76,50.08,50.08,0,0,1-9.91-16,51.23,51.23,0,0,1-2-6.59H348.68c.15-1,.29-2,.39-3.08a87.2,87.2,0,0,0,.54-9.76,86.25,86.25,0,0,0-1.13-14.12m-123-6.06s0-.09,0-.14a49,49,0,0,1,9.9-15.9,47.54,47.54,0,0,1,14.76-10.65,43.41,43.41,0,0,1,18.33-3.86c12.23,0,21.94,3,28.88,8.79,6.46,5.42,10.75,12.74,12.77,21.76Z"/><path class="cls-1" d="M166.67,82.51v6.92c0,1.86,0,3.68-.12,5.48a82.13,82.13,0,0,1-6.23,25.73,86.45,86.45,0,0,1-17.69,26.93,82.1,82.1,0,0,1-26.25,18.12,79,79,0,0,1-31.22,6.57,83.31,83.31,0,0,1-58.81-24.72A87.18,87.18,0,0,1,8.42,120.63,82.46,82.46,0,0,1,1.79,87.82,83.81,83.81,0,0,1,8.3,55,84.58,84.58,0,0,1,52.6,9.86a79.47,79.47,0,0,1,32-6.71,78.09,78.09,0,0,1,31.79,6.69,83.73,83.73,0,0,1,26.25,18.24A86.45,86.45,0,0,1,160.32,55a80.44,80.44,0,0,1,3.52,10.17H125.32l-.38-1.28a34.2,34.2,0,0,0-4.94-10,39.41,39.41,0,0,0-8.35-8.48,41,41,0,0,0-11.39-6,43.72,43.72,0,0,0-14.14-2.2A43.39,43.39,0,0,0,67.8,41.17,46.57,46.57,0,0,0,53,51.93a49.88,49.88,0,0,0-9.9,16A54.72,54.72,0,0,0,39.6,87.82a54.69,54.69,0,0,0,3.54,19.87A48.63,48.63,0,0,0,53,123.59,47.42,47.42,0,0,0,67.8,134.24a43.18,43.18,0,0,0,18.32,3.86c9.69,0,17.8-1.85,24.2-5.53a30.94,30.94,0,0,0,4.68-3.25,36.92,36.92,0,0,0,10.66-14.92,44.09,44.09,0,0,0,2.11-6.85H84.31v-33h81.52c.41,2.62.69,5.27.84,8"/></svg>