<?xml version="1.0" encoding="utf-8"?>
<!-- Generator: Adobe Illustrator 26.0.3, SVG Export Plug-In . SVG Version: 6.00 Build 0)  -->
<svg version="1.1" id="Calque_1" xmlns="http://www.w3.org/2000/svg" xmlns:xlink="http://www.w3.org/1999/xlink" x="0px" y="0px"
	 viewBox="0 0 877 372.9" style="enable-background:new 0 0 877 372.9;" xml:space="preserve">
<style type="text/css">
	.st0{fill:#FFFFFF;}
	.st1{fill:#38A8E0;}
</style>
<path id="XMLID_00000147905134362904815120000004744477217942704823_" class="st0" d="M448.4,1.9c11.1-0.1,22,2.2,32.1,6.7
	c9.8,4.3,18.7,10.5,26.2,18.2c7.5,7.8,13.5,16.9,17.7,26.9c4.4,10.4,6.6,21.5,6.5,32.8c0.1,11.3-2.1,22.4-6.5,32.8
	c-4.2,10-10.2,19.1-17.7,26.9c-7.5,7.7-16.4,13.8-26.2,18.1c-20.5,8.8-43.8,8.8-64.3,0c-9.9-4.3-18.8-10.4-26.3-18.1
	c-7.5-7.8-13.5-16.9-17.7-26.9c-4.4-10.4-6.6-21.6-6.5-32.8c-0.1-11.3,2.1-22.4,6.5-32.8c4.2-10,10.2-19.1,17.7-26.9
	c7.5-7.7,16.4-13.9,26.2-18.2C426.3,4.1,437.3,1.9,448.4,1.9 M448.4,33.2c-6.5-0.1-12.9,1.4-18.8,4.1c-5.8,2.7-10.9,6.6-15,11.4
	c-4.3,5-7.8,10.7-10.1,16.9c-2.5,6.7-3.8,13.8-3.7,20.9c-0.1,7.1,1.2,14.2,3.7,20.9c2.3,6.2,5.8,11.9,10.1,16.8
	c4.2,4.7,9.3,8.6,15,11.3c11.9,5.5,25.6,5.5,37.6,0c5.7-2.7,10.8-6.6,15-11.3c4.4-5,7.8-10.7,10.1-16.8c2.5-6.7,3.8-13.8,3.7-20.9
	c0.1-7.2-1.2-14.3-3.7-20.9c-2.3-6.2-5.7-11.9-10.1-16.9c-4.2-4.8-9.3-8.7-15-11.4C461.3,34.6,454.9,33.2,448.4,33.2"/>
<polygon id="XMLID_00000018917624567177982370000004662684742210274739_" class="st1" points="551.1,171.8 588.4,171.8 588.4,103.6 
	656.8,103.6 656.8,68.6 588.4,68.6 588.4,37.8 664.7,37.8 664.7,2.8 551.1,2.8 "/>
<rect id="XMLID_00000010270627960599204580000010075689237629647007_" x="686.7" y="2.8" class="st1" width="37.3" height="169"/>
<polygon id="XMLID_00000183230121048841458000000011432682933091954822_" class="st1" points="741.7,2.8 741.7,37.8 789.5,37.8 
	789.5,171.8 826.8,171.8 826.8,37.8 874.6,37.8 874.6,2.8 "/>
<path id="XMLID_00000029731936373290195690000000296822829399224490_" class="st0" d="M349.2,73.4c-1-6.4-2.8-12.7-5.4-18.7
	c-4.2-10-10.2-19.1-17.7-26.9c-7.5-7.7-16.4-13.9-26.2-18.2c-10.1-4.5-21.1-6.8-32.1-6.7c-6.3,0-12.5,0.7-18.6,2.2
	c-0.6,0.1-1.1,0.3-1.7,0.4l-0.6,0.2L245.2,6c-0.5,0.2-1,0.3-1.5,0.5c-0.7,0.2-1.4,0.5-2.1,0.7c-2,0.7-4,1.5-6,2.4
	c-9.8,4.3-18.7,10.5-26.2,18.2c-7.5,7.8-13.5,16.9-17.7,26.9c-4.4,10.4-6.6,21.6-6.5,32.8c-0.1,11.3,2.1,22.4,6.5,32.8
	c0.5,1.3,1.1,2.6,1.7,3.8c0.2,0.5,0.4,0.9,0.7,1.4c8.9,17.7,23.6,31.6,41.7,39.5c10.2,4.5,21.2,6.8,32.3,6.7
	c5.1,0,10.2-0.4,15.3-1.2c5.7-1.1,11.3-2.8,16.6-5.1c9.8-4.3,18.8-10.4,26.2-18.1c7.5-7.8,13.5-16.9,17.7-26.9
	c1.5-3.4,2.7-7,3.6-10.6h-39L308,111c-1.1,3.6-2.7,7-4.9,10c-2.3,3.2-5.2,6.1-8.4,8.5c-3.5,2.6-7.3,4.6-11.4,5.9
	c-10.7,3.4-22.2,2.8-32.5-1.6c-5.6-2.6-10.6-6.3-14.7-10.8c-4.3-4.7-7.6-10.1-9.9-16c-0.8-2.1-1.5-4.4-2-6.6h125.2
	c0.1-1,0.3-2,0.4-3.1c0.4-3.2,0.5-6.5,0.5-9.8C350.3,82.8,350,78.1,349.2,73.4 M226.2,67.4c0,0,0-0.1,0-0.1
	c2.2-5.9,5.6-11.3,9.9-15.9c4.2-4.5,9.2-8.1,14.8-10.7c5.8-2.6,12-3.9,18.3-3.9c12.2,0,21.9,3,28.9,8.8c6.5,5.4,10.8,12.7,12.8,21.8
	L226.2,67.4z"/>
<path id="XMLID_00000112619351171823833400000015740789466964158647_" class="st0" d="M167.4,82.1V89c0,1.9,0,3.7-0.1,5.5
	c-0.7,8.9-2.8,17.6-6.2,25.7c-4.2,10-10.2,19.1-17.7,26.9c-7.5,7.7-16.4,13.9-26.2,18.1c-9.9,4.3-20.5,6.5-31.2,6.6
	c-22.1-0.1-43.3-9-58.8-24.7c-7.6-7.8-13.7-16.9-17.9-26.9c-4.4-10.4-6.7-21.5-6.6-32.8C2.4,76.1,4.6,65,9,54.6
	c8.4-20.2,24.2-36.4,44.3-45.2c10.1-4.4,21-6.7,32-6.7c10.9,0,21.8,2.3,31.8,6.7c9.8,4.3,18.8,10.5,26.2,18.2
	c7.5,7.8,13.5,16.9,17.7,26.9c1.4,3.3,2.6,6.7,3.5,10.2H126l-0.4-1.3c-1.1-3.6-2.8-7-4.9-10c-2.3-3.2-5.1-6.1-8.3-8.5
	c-3.5-2.6-7.3-4.5-11.3-5.9c-10.7-3.4-22.2-2.8-32.5,1.7c-5.6,2.6-10.6,6.2-14.8,10.8c-4.3,4.7-7.6,10.1-9.9,16
	c-2.4,6.4-3.6,13.1-3.5,19.9c-0.1,6.8,1.1,13.5,3.5,19.9c2.2,5.9,5.6,11.3,9.9,15.9c4.2,4.5,9.2,8.1,14.8,10.7
	c5.8,2.6,12,3.9,18.3,3.9c9.7,0,17.8-1.9,24.2-5.5c1.7-0.9,3.2-2,4.7-3.2c4.7-4,8.4-9.1,10.7-14.9c0.9-2.2,1.6-4.5,2.1-6.8H85v-33
	h81.5C166.9,76.8,167.2,79.4,167.4,82.1"/>
</svg>
