<svg id="Calque_1" data-name="Calque 1" xmlns="http://www.w3.org/2000/svg" xmlns:xlink="http://www.w3.org/1999/xlink" viewBox="0 0 877.05 328.76"><defs><style>.cls-1{fill:none;}.cls-2{clip-path:url(#clip-path);}.cls-3{fill:#2b3181;}.cls-4{fill:#38a8e0;}</style><clipPath id="clip-path"><rect class="cls-1" width="877.05" height="173.76"/></clipPath></defs><g class="cls-2"><g class="cls-2"><path class="cls-3" d="M448.12,1.93a78.12,78.12,0,0,1,32.15,6.7,83.87,83.87,0,0,1,26.25,18.23A86.61,86.61,0,0,1,524.21,53.8a83.43,83.43,0,0,1,6.51,32.81,83.44,83.44,0,0,1-6.51,32.82,86.45,86.45,0,0,1-17.69,26.93,82.24,82.24,0,0,1-26.25,18.11,81.72,81.72,0,0,1-64.3,0,82.08,82.08,0,0,1-26.24-18.11A86.3,86.3,0,0,1,372,119.43a83.43,83.43,0,0,1-6.5-32.82A83.42,83.42,0,0,1,372,53.8a86.46,86.46,0,0,1,17.7-26.94A83.71,83.71,0,0,1,416,8.63a78.12,78.12,0,0,1,32.15-6.7m0,31.28a43.29,43.29,0,0,0-18.78,4.12,46.12,46.12,0,0,0-15,11.41,56.1,56.1,0,0,0-10.11,16.93,57.54,57.54,0,0,0-3.74,20.94,57.41,57.41,0,0,0,3.74,20.93,54.35,54.35,0,0,0,10.11,16.82,46.78,46.78,0,0,0,15,11.3,45,45,0,0,0,37.56,0A46.78,46.78,0,0,0,482,124.36a54.56,54.56,0,0,0,10.12-16.82,57.61,57.61,0,0,0,3.73-20.93,57.74,57.74,0,0,0-3.73-20.94A56.32,56.32,0,0,0,482,48.74,46.12,46.12,0,0,0,466.9,37.33a43.29,43.29,0,0,0-18.78-4.12"/><polygon class="cls-4" points="550.9 171.78 588.16 171.78 588.16 103.63 656.59 103.63 656.59 68.58 588.16 68.58 588.16 37.84 664.48 37.84 664.48 2.78 550.9 2.78 550.9 171.78"/><rect class="cls-4" x="686.47" y="2.78" width="37.26" height="169"/><polygon class="cls-4" points="741.49 2.78 741.49 37.84 789.27 37.84 789.27 171.78 826.53 171.78 826.53 37.84 874.32 37.84 874.32 2.78 741.49 2.78"/><path class="cls-3" d="M348.94,73.39a81.72,81.72,0,0,0-5.37-18.7,86.3,86.3,0,0,0-17.7-26.93A83.71,83.71,0,0,0,299.63,9.53a78.13,78.13,0,0,0-32.15-6.71A80.22,80.22,0,0,0,248.89,5q-.85.19-1.71.42l-.63.17L244.93,6c-.51.15-1,.3-1.52.47-.71.22-1.42.46-2.12.7q-3,1.05-6,2.36a83.71,83.71,0,0,0-26.24,18.23,86.3,86.3,0,0,0-17.7,26.93,83.43,83.43,0,0,0-6.5,32.82,83.42,83.42,0,0,0,6.5,32.81c.54,1.28,1.1,2.55,1.69,3.79.22.46.44.93.68,1.38A84.26,84.26,0,0,0,235.46,165a79.53,79.53,0,0,0,32.34,6.72,92.27,92.27,0,0,0,15.26-1.24,77.58,77.58,0,0,0,16.57-5.13,82,82,0,0,0,26.24-18.12,86.3,86.3,0,0,0,17.7-26.93,81.94,81.94,0,0,0,3.63-10.61h-39l-.38,1.27a33.85,33.85,0,0,1-4.93,10,39.64,39.64,0,0,1-8.35,8.48,40.75,40.75,0,0,1-11.39,5.94,45.83,45.83,0,0,1-32.47-1.65A46.84,46.84,0,0,1,235.9,123a50.08,50.08,0,0,1-9.91-16,51.23,51.23,0,0,1-2-6.59H349.14c.15-1,.29-2,.39-3.08a87.2,87.2,0,0,0,.54-9.76,86.25,86.25,0,0,0-1.13-14.12M226,67.33s0-.09,0-.14a49,49,0,0,1,9.9-15.9,47.54,47.54,0,0,1,14.76-10.65A43.41,43.41,0,0,1,269,36.78c12.23,0,21.94,3,28.88,8.79,6.46,5.42,10.75,12.74,12.77,21.76Z"/><path class="cls-3" d="M167.12,82.09V89c0,1.86,0,3.68-.12,5.48a82.13,82.13,0,0,1-6.23,25.73,86.45,86.45,0,0,1-17.69,26.93,82.1,82.1,0,0,1-26.25,18.12,79,79,0,0,1-31.22,6.57A83.31,83.31,0,0,1,26.8,147.12,87.18,87.18,0,0,1,8.87,120.21,82.46,82.46,0,0,1,2.24,87.4,83.81,83.81,0,0,1,8.75,54.6,84.58,84.58,0,0,1,53.05,9.44,79.47,79.47,0,0,1,85,2.73a78.09,78.09,0,0,1,31.79,6.69,83.73,83.73,0,0,1,26.25,18.24,86.45,86.45,0,0,1,17.69,26.93,80.44,80.44,0,0,1,3.52,10.17H125.77l-.38-1.28a34.2,34.2,0,0,0-4.94-10A39.41,39.41,0,0,0,112.1,45a41,41,0,0,0-11.39-5.95,45.89,45.89,0,0,0-32.46,1.66A46.57,46.57,0,0,0,53.49,51.51a49.88,49.88,0,0,0-9.9,16A54.72,54.72,0,0,0,40.05,87.4a54.69,54.69,0,0,0,3.54,19.87,48.63,48.63,0,0,0,9.89,15.9,47.42,47.42,0,0,0,14.77,10.65,43.18,43.18,0,0,0,18.32,3.86c9.69,0,17.8-1.85,24.2-5.53a30.94,30.94,0,0,0,4.68-3.25A36.92,36.92,0,0,0,126.11,114a44.09,44.09,0,0,0,2.11-6.85H84.76v-33h81.52c.41,2.62.69,5.27.84,8"/></g></g></svg>