<svg id="Calque_1" data-name="Calque 1" xmlns="http://www.w3.org/2000/svg" viewBox="0 0 100 100"><defs><style>.cls-1{fill:#fff;}.cls-2{fill:#30a7df;}</style></defs><path class="cls-1" d="M43.21,51.91a57.9,57.9,0,0,1-17.59-2.5c-6.33-2.1-9.81-5.26-9.81-8.9v-16a2,2,0,0,1,4,0c0,1.75,3.29,4.4,10.51,6a58.83,58.83,0,0,0,12.89,1.35,59,59,0,0,0,12.9-1.35c7.22-1.65,10.51-4.3,10.51-6a2,2,0,0,1,4,0v16c0,3.64-3.48,6.8-9.81,8.9A58,58,0,0,1,43.21,51.91ZM19.81,30.68v9.83c0,1.27,1.85,3.37,7.07,5.1a53.84,53.84,0,0,0,16.33,2.3,54,54,0,0,0,16.34-2.3c5.22-1.73,7.07-3.83,7.07-5.1V30.68A29,29,0,0,1,57,34.46a62.84,62.84,0,0,1-13.8,1.45,62.68,62.68,0,0,1-13.79-1.45A29,29,0,0,1,19.81,30.68Z"/><path class="cls-1" d="M43.21,65.91a59.08,59.08,0,0,1-17-2.3c-6.73-2.11-10.43-5.34-10.43-9.1v-14a2,2,0,0,1,4,0c0,1.27,1.85,3.37,7.07,5.1a53.84,53.84,0,0,0,16.33,2.3,54,54,0,0,0,16.34-2.3c5.22-1.73,7.07-3.83,7.07-5.1a2,2,0,1,1,4,0c0,3.64-3.48,6.8-9.81,8.9a58,58,0,0,1-17.6,2.5,57.9,57.9,0,0,1-17.59-2.5,24.23,24.23,0,0,1-5.81-2.73v7.83c0,1.33,2,3.52,7.63,5.28a54.67,54.67,0,0,0,15.77,2.12c1.33,0,2.67,0,4-.12a2,2,0,0,1,.24,4C46,65.87,44.62,65.91,43.21,65.91Z"/><path class="cls-1" d="M43.21,80.3c-13.28,0-27.4-4-27.4-11.41V54.51a2,2,0,0,1,4,0c0,1.33,2,3.52,7.63,5.28a54.67,54.67,0,0,0,15.77,2.12c1.33,0,2.67,0,4-.12a2,2,0,0,1,.24,4c-1.39.08-2.8.12-4.21.12a59.08,59.08,0,0,1-17-2.3,24.93,24.93,0,0,1-6.43-2.93v8.21c0,3,9.12,7.41,23.4,7.41,1.88,0,3.76-.08,5.58-.23a2,2,0,0,1,.34,4C47.19,80.22,45.2,80.3,43.21,80.3Z"/><path class="cls-1" d="M43.21,35.91a62.68,62.68,0,0,1-13.79-1.45c-8.65-2-13.61-5.61-13.61-9.95,0-7.4,14.12-11.4,27.4-11.4s27.41,4,27.41,11.4c0,4.34-5,8-13.61,10A62.84,62.84,0,0,1,43.21,35.91Zm0-18.8c-14.28,0-23.4,4.38-23.4,7.4,0,1.75,3.29,4.4,10.51,6a58.83,58.83,0,0,0,12.89,1.35,59,59,0,0,0,12.9-1.35c7.22-1.65,10.51-4.3,10.51-6C66.62,21.49,57.5,17.11,43.21,17.11Z"/><path class="cls-2" d="M68.3,86.13A17.51,17.51,0,1,1,85.81,68.62,17.53,17.53,0,0,1,68.3,86.13Zm0-31A13.51,13.51,0,1,0,81.81,68.62,13.52,13.52,0,0,0,68.3,55.11Z"/><path class="cls-2" d="M61.44,70.72A2,2,0,0,1,60,70.14a2,2,0,0,1,0-2.83l4.81-4.81a2,2,0,0,1,2.83,2.82l-4.81,4.82A2,2,0,0,1,61.44,70.72Z"/><path class="cls-2" d="M66.42,75.72A2,2,0,0,1,65,75.14l-5-5a2,2,0,1,1,2.83-2.83l5,5a2,2,0,0,1,0,2.83A2,2,0,0,1,66.42,75.72Z"/><path class="cls-2" d="M76.21,70.88H61.44a2,2,0,0,1,0-4H76.21a2,2,0,0,1,0,4Z"/></svg>