<svg id="Calque_1" data-name="Calque 1" xmlns="http://www.w3.org/2000/svg" viewBox="0 0 100 100"><defs><style>.cls-1{fill:#28347a;}.cls-2{fill:#30a7df;}</style></defs><path class="cls-1" d="M67.85,84.94h-50a2,2,0,0,1-2-2V42.08a2,2,0,0,1,2-2H38.43l-.15-20.62a2,2,0,0,1,2-2H67.85a2,2,0,0,1,2,2V40.21a2,2,0,1,1-4,0V21.45H42.29l.16,20.62a2,2,0,0,1-2,2H19.81V80.94h46V69a2,2,0,1,1,4,0v14A2,2,0,0,1,67.85,84.94Z"/><path class="cls-1" d="M17.81,44.08a2,2,0,0,1-1.42-3.4L38.86,18a2,2,0,1,1,2.84,2.82L19.23,43.49A2,2,0,0,1,17.81,44.08Z"/><path class="cls-2" d="M83.56,48.9a2,2,0,0,1-1.42-.59L74.82,41a2,2,0,0,1,0-2.83l7.76-7.76a2.06,2.06,0,0,1,2.83,0l7.32,7.32a2,2,0,0,1,0,2.83L85,48.31A2,2,0,0,1,83.56,48.9Zm-4.5-9.33,4.5,4.5,4.93-4.94L84,34.64Z"/><path class="cls-2" d="M52.15,72.72a2,2,0,0,1-1.44-.6,2,2,0,0,1-.45-2.05L54,59.31a2,2,0,0,1,.48-.77L74.82,38.16a2,2,0,0,1,2.83,0L85,45.48a2,2,0,0,1,0,2.83L64.59,68.7a2.14,2.14,0,0,1-.82.49l-11,3.44A2.08,2.08,0,0,1,52.15,72.72ZM57.59,61l-2.26,6.6,6.78-2.12L80.73,46.9l-4.5-4.5Z"/></svg>