<svg id="Calque_1" data-name="Calque 1" xmlns="http://www.w3.org/2000/svg" viewBox="0 0 100 100"><defs><style>.cls-1{fill:#30a7df;}.cls-2{fill:#28347a;}</style></defs><path class="cls-1" d="M50,47.32A10.62,10.62,0,1,1,60.62,36.7,10.63,10.63,0,0,1,50,47.32Zm0-17.24a6.62,6.62,0,1,0,6.62,6.62A6.63,6.63,0,0,0,50,30.08Z"/><path class="cls-1" d="M84.45,86.77H15.25a2,2,0,0,1-1.64-.86,2,2,0,0,1-.23-1.84l7.3-19.54a2,2,0,0,1,1.88-1.3H35.68a2,2,0,0,1,0,4H23.94l-5.8,15.54H81.52L75.45,67.23H63.77a2,2,0,0,1,0-4h13a2,2,0,0,1,1.86,1.28L86.31,84a2,2,0,0,1-1.86,2.73Z"/><path class="cls-2" d="M50,77a2.56,2.56,0,0,1-.39,0c-.74-.15-1-.21-4.79-5.1C43.33,70,40.39,66,37.3,61.37c-7.29-11-11-19.29-11-24.67a23.68,23.68,0,0,1,47.36,0c0,12.55-21.23,38.47-22.14,39.57h0A2,2,0,0,1,50,77Zm0-2h0Zm0-58A19.7,19.7,0,0,0,30.32,36.7c0,9.18,14.77,29.29,19.6,35.21,6.63-8.36,19.76-26.67,19.76-35.21A19.7,19.7,0,0,0,50,17Z"/></svg>