<svg id="Calque_1" data-name="Calque 1" xmlns="http://www.w3.org/2000/svg" viewBox="0 0 100 100"><defs><style>.cls-1{fill:#30a7df;}.cls-2{fill:#fff;}</style></defs><path class="cls-1" d="M70.45,47.69A17.24,17.24,0,1,1,87.69,30.45,17.25,17.25,0,0,1,70.45,47.69Zm0-30.47A13.24,13.24,0,1,0,83.69,30.45,13.25,13.25,0,0,0,70.45,17.22Z"/><path class="cls-1" d="M68.78,38.12a2,2,0,0,1-1.42-.59L61.7,31.87A2,2,0,1,1,64.52,29l5.67,5.67a2,2,0,0,1-1.41,3.41Z"/><path class="cls-1" d="M68.78,38.12a2,2,0,0,1-1.44-3.4l10.4-10.65a2,2,0,1,1,2.86,2.79L70.21,37.52A2,2,0,0,1,68.78,38.12Z"/><path class="cls-2" d="M47.34,67.15A11.11,11.11,0,1,1,58.45,56,11.12,11.12,0,0,1,47.34,67.15Zm0-18.21A7.11,7.11,0,1,0,54.45,56,7.11,7.11,0,0,0,47.34,48.94Z"/><path class="cls-2" d="M46,28.36H41.17a2,2,0,0,1,0-4H46a2,2,0,0,1,0,4Z"/><path class="cls-2" d="M41.17,38a2,2,0,0,1-2-2V26.36a2,2,0,0,1,4,0V36A2,2,0,0,1,41.17,38Z"/><path class="cls-2" d="M37.47,39.66a2,2,0,0,1-.82-3.83l3.7-1.66A2,2,0,0,1,42,37.83l-3.7,1.65A2,2,0,0,1,37.47,39.66Z"/><path class="cls-2" d="M37.47,39.66a2,2,0,0,1-1.34-.51L29.24,33a2,2,0,0,1,2.67-3l6.89,6.19a2,2,0,0,1-1.33,3.49Z"/><path class="cls-2" d="M22.79,41.57a2,2,0,0,1-1.45-3.38l7.79-8.11A2,2,0,0,1,32,32.85L24.23,41A2,2,0,0,1,22.79,41.57Z"/><path class="cls-2" d="M28.66,47.69a2,2,0,0,1-1.44-.62L21.34,41a2,2,0,1,1,2.89-2.77L30.1,44.3a2,2,0,0,1-1.44,3.39Z"/><path class="cls-2" d="M27.74,50.91a2.16,2.16,0,0,1-.56-.08,2,2,0,0,1-1.37-2.47l.93-3.22a2,2,0,1,1,3.84,1.1l-.92,3.22A2,2,0,0,1,27.74,50.91Z"/><path class="cls-2" d="M18,52a2,2,0,0,1-.22-4l9.69-1.09a2,2,0,0,1,.45,4L18.27,52Z"/><path class="cls-2" d="M18,63.57h0a2,2,0,0,1-2-2L16.05,50a2,2,0,0,1,2-2h0a2,2,0,0,1,2,2L20,61.59A2,2,0,0,1,18,63.57Z"/><path class="cls-2" d="M18,63.57a2,2,0,0,1,0-4l8.59-.08h0a2,2,0,0,1,0,4L18,63.57Z"/><path class="cls-2" d="M29,67.85a2,2,0,0,1-1.73-1l-2.49-4.36a2,2,0,1,1,3.47-2l2.49,4.36A2,2,0,0,1,30,67.59,2,2,0,0,1,29,67.85Z"/><path class="cls-2" d="M22.6,74.64a2,2,0,0,1-1.45-3.38l6.44-6.79a2,2,0,0,1,2.9,2.76L24.05,74A2,2,0,0,1,22.6,74.64Z"/><path class="cls-2" d="M30.91,82.21a2,2,0,0,1-1.34-.52l-8.32-7.57a2,2,0,0,1,2.69-3l8.32,7.57a2,2,0,0,1-1.35,3.48Z"/><path class="cls-2" d="M30.92,82.21a2,2,0,0,1-1.45-3.38l5.83-6.1a2,2,0,1,1,2.89,2.76l-5.83,6.1A2,2,0,0,1,30.92,82.21Z"/><path class="cls-2" d="M41.53,79a2,2,0,0,1-1-.28l-4.79-2.86a2,2,0,1,1,2.05-3.43l4.79,2.85a2,2,0,0,1-1,3.72Z"/><path class="cls-2" d="M41.33,86.73h0a2,2,0,0,1-2-2l.2-7.77a2,2,0,1,1,4,.1l-.2,7.78A2,2,0,0,1,41.33,86.73Z"/><path class="cls-2" d="M41.33,86.73a2,2,0,0,1-.1-4l12.28-.64a2,2,0,0,1,.21,4l-12.29.64Z"/><path class="cls-2" d="M53.62,86.1a2,2,0,0,1-2-1.87l-.54-7.94a2,2,0,1,1,4-.28L55.61,84a2,2,0,0,1-1.86,2.13Z"/><path class="cls-2" d="M53.08,78.15a2,2,0,0,1-.95-3.76l4.62-2.49a2,2,0,1,1,1.9,3.52L54,77.91A2,2,0,0,1,53.08,78.15Z"/><path class="cls-2" d="M63.8,82.33a2,2,0,0,1-1.48-.65L56.23,75a2,2,0,1,1,3-2.7L65.27,79a2,2,0,0,1-1.47,3.35Z"/><path class="cls-2" d="M63.8,82.33a2,2,0,0,1-1.28-.46,2,2,0,0,1-.26-2.81l7.66-9.26A2,2,0,1,1,73,72.35L65.34,81.6A2,2,0,0,1,63.8,82.33Z"/><path class="cls-2" d="M71.46,73.07A2,2,0,0,1,70,72.43L64.5,66.51a2,2,0,1,1,2.93-2.72l5.49,5.93a2,2,0,0,1-1.46,3.35Z"/><path class="cls-2" d="M66,67.15a2,2,0,0,1-.82-.18,2,2,0,0,1-1-2.64l2-4.32a2,2,0,0,1,3.65,1.64L67.79,66A2,2,0,0,1,66,67.15Z"/><path class="cls-2" d="M76.53,63h0l-8.61-.13a2,2,0,0,1,0-4h0l8.62.13a2,2,0,0,1,0,4Z"/><path class="cls-2" d="M76.53,63a2,2,0,0,1-2-1.93l-.22-6.61a2,2,0,1,1,4-.14l.22,6.61A2,2,0,0,1,76.6,63Z"/></svg>