<svg id="Calque_1" data-name="Calque 1" xmlns="http://www.w3.org/2000/svg" viewBox="0 0 100 100"><defs><style>.cls-1{fill:#fff;}.cls-2{fill:#30a7df;}</style></defs><path class="cls-1" d="M28.6,80.45H13.92a2,2,0,0,1-2-2V58.34a2,2,0,0,1,2-2H28.6a2,2,0,0,1,2,2V78.45A2,2,0,0,1,28.6,80.45Zm-12.68-4H26.6V60.34H15.92Z"/><path class="cls-1" d="M43.79,80.45H28.6a2,2,0,0,1-2-2V43.21a2,2,0,0,1,2-2H43.79a2,2,0,0,1,2,2V78.45A2,2,0,0,1,43.79,80.45Zm-13.19-4H41.79V45.21H30.6Z"/><path class="cls-1" d="M59.17,47.7a2,2,0,0,1-2-2V29.57H45.79V45.7a2,2,0,0,1-4,0V27.57a2,2,0,0,1,2-2H59.17a2,2,0,0,1,2,2V45.7A2,2,0,0,1,59.17,47.7Z"/><path class="cls-1" d="M59.17,47.38a2,2,0,0,1-2-2V17.81a2,2,0,0,1,2-2H74.23a2,2,0,0,1,2,2V43.53a2,2,0,0,1-4,0V19.81H61.17V45.38A2,2,0,0,1,59.17,47.38Z"/><path class="cls-1" d="M48.79,80.45h-5a2,2,0,0,1,0-4h5a2,2,0,1,1,0,4Z"/><path class="cls-2" d="M70,88.44a20,20,0,1,1,20-20A20.07,20.07,0,0,1,70,88.44Zm0-36.09a16,16,0,1,0,16,16A16.06,16.06,0,0,0,70,52.35Z"/><path class="cls-2" d="M83.36,82.49A2,2,0,0,1,82,82L68.67,70.15a2,2,0,0,1,2.66-3L84.69,79a2,2,0,0,1-1.33,3.5Z"/><path class="cls-2" d="M70,70.39a2,2,0,0,1-2-2v-18a2,2,0,0,1,4,0v18A2,2,0,0,1,70,70.39Z"/></svg>