<svg id="Calque_1" data-name="Calque 1" xmlns="http://www.w3.org/2000/svg" viewBox="0 0 100 100"><defs><style>.cls-1{fill:#30a7df;}.cls-2{fill:#28347a;}</style></defs><path class="cls-1" d="M29,41.71a2,2,0,0,1-2-1.88c-.07-1.21-.11-2.42-.11-3.61a2,2,0,0,1,2-2h0a2,2,0,0,1,2,2c0,1.11,0,2.25.11,3.38A2,2,0,0,1,29.1,41.7Z"/><path class="cls-1" d="M39.14,62.85a8.28,8.28,0,0,1-2.54-.39,8.49,8.49,0,0,1-3.87-2.67,2,2,0,0,1,3.05-2.58,4.52,4.52,0,0,0,2,1.44,4.77,4.77,0,0,0,2,.15,2,2,0,1,1,.53,4A8.86,8.86,0,0,1,39.14,62.85Zm35.1-2.71a2,2,0,0,1-2-1.81c-.16-1.73-.36-3.47-.59-5.17-.06-.39-.12-.81-.18-1.27a2,2,0,1,1,4-.6c.07.48.14.93.19,1.34.24,1.75.44,3.54.61,5.32a2,2,0,0,1-1.8,2.18Zm-28.35-.3a2,2,0,0,1-1.39-.56,2,2,0,0,1,0-2.83A24.07,24.07,0,0,0,47.66,52c.12-.19.22-.36.32-.54a2,2,0,1,1,3.47,2l-.35.6a28,28,0,0,1-3.78,5.15A2,2,0,0,1,45.89,59.84Zm-14.57-5.2a2,2,0,0,1-1.89-1.35c-.17-.49-.34-1-.5-1.47a29.67,29.67,0,0,1-1.22-5.26,2,2,0,1,1,3.95-.6,25.93,25.93,0,0,0,1.07,4.6c.15.47.31.95.48,1.42A2,2,0,0,1,32,54.53,2.16,2.16,0,0,1,31.32,54.64Zm21.16-6.11a2,2,0,0,1-1.84-2.79c.37-.87,1-2.26,1.87-4.16.33-.71.63-1.34.92-1.92A2,2,0,1,1,57,41.42c-.28.56-.57,1.18-.89,1.86-.87,1.85-1.45,3.19-1.81,4A2,2,0,0,1,52.48,48.53ZM72,47.16a2,2,0,0,1-1.91-1.42c-.33-1.09-.71-2.19-1.14-3.26s-.76-1.8-1.14-2.53a2,2,0,0,1,.87-2.7,2,2,0,0,1,2.69.87A31.06,31.06,0,0,1,72.69,41c.47,1.17.89,2.37,1.25,3.57a2,2,0,0,1-1.34,2.49A2,2,0,0,1,72,47.16ZM58.8,37.06a2,2,0,0,1-1.21-3.59,6.47,6.47,0,0,1,1.39-.8A8.65,8.65,0,0,1,62.39,32a10.62,10.62,0,0,1,3.37.57,2,2,0,1,1-1.28,3.79A6.75,6.75,0,0,0,62.39,36a4.61,4.61,0,0,0-1.84.36,2.74,2.74,0,0,0-.54.31A2,2,0,0,1,58.8,37.06Z"/><path class="cls-1" d="M74.83,70.3a2,2,0,0,1-2-2q0-1.78-.12-3.45a2,2,0,1,1,4-.18q.08,1.71.12,3.54a2,2,0,0,1-2,2Z"/><path class="cls-2" d="M16.53,85.11a2,2,0,0,1-2-2V23.62a2,2,0,0,1,1.36-1.9l23.23-7.91a2,2,0,0,1,1.81.27,2,2,0,0,1,.84,1.62V75.19a2,2,0,0,1-1.36,1.89L17.18,85A2.06,2.06,0,0,1,16.53,85.11Zm2-60.06V80.31l19.24-6.55V18.5ZM39.77,75.19h0Z"/><path class="cls-2" d="M62.56,85.11a2,2,0,0,1-1.16-.38,2,2,0,0,1-.84-1.62V23.62a2,2,0,0,1,1.36-1.9l23.23-7.91A2,2,0,0,1,87.8,15.7V75.19a2,2,0,0,1-1.36,1.89L63.21,85A2.06,2.06,0,0,1,62.56,85.11Zm2-60.06V80.31L83.8,73.76V18.5ZM85.8,75.19h0Z"/><path class="cls-2" d="M63,85.11a2,2,0,0,1-.64-.11L39.12,77.08a2,2,0,0,1-1.35-1.89V15.7a2,2,0,0,1,2.64-1.89l23.23,7.91A2,2,0,0,1,65,23.62V83.11a2,2,0,0,1-2,2ZM41.77,73.76,61,80.31V25.05L41.77,18.5Z"/><circle class="cls-1" cx="28.87" cy="36.21" r="3.06"/><circle class="cls-1" cx="74.83" cy="68.3" r="3.06" transform="translate(1.4 138.1) rotate(-85.93)"/></svg>