<svg id="Calque_1" data-name="Calque 1" xmlns="http://www.w3.org/2000/svg" xmlns:xlink="http://www.w3.org/1999/xlink" viewBox="0 0 658.05 326.76"><defs><style>.cls-1{fill:none;}.cls-2{clip-path:url(#clip-path);}.cls-3{fill:#2b3181;}.cls-4{fill:#38a8e0;}</style><clipPath id="clip-path"><rect class="cls-1" y="-2.5" width="658.05" height="174.76"/></clipPath></defs><g class="cls-2"><rect class="cls-3" x="4.04" y="0.68" width="37.26" height="169"/><polygon class="cls-4" points="481.65 169.68 518.91 169.68 518.91 101.53 587.34 101.53 587.34 66.47 518.91 66.47 518.91 35.73 595.23 35.73 595.23 0.68 481.65 0.68 481.65 169.68"/><rect class="cls-4" x="617.22" y="0.68" width="37.26" height="169"/><polygon class="cls-3" points="260.7 0.68 298.06 0.68 370.66 104.05 371.11 0.68 407.06 0.83 407.06 169.68 372.28 169.68 297.28 62.14 297.34 169.68 260.7 169.68 260.7 0.68"/><g class="cls-2"><path class="cls-3" d="M233.5,80V86.9c0,1.86,0,3.68-.12,5.48a82.13,82.13,0,0,1-6.23,25.73A86.45,86.45,0,0,1,209.46,145a82.1,82.1,0,0,1-26.25,18.12A79,79,0,0,1,152,169.73,83.31,83.31,0,0,1,93.18,145,87.18,87.18,0,0,1,75.25,118.1a82.46,82.46,0,0,1-6.63-32.81,83.81,83.81,0,0,1,6.51-32.8,84.58,84.58,0,0,1,44.3-45.16,79.47,79.47,0,0,1,32-6.71,78.09,78.09,0,0,1,31.79,6.69,83.73,83.73,0,0,1,26.25,18.24,86.45,86.45,0,0,1,17.69,26.93,80.44,80.44,0,0,1,3.52,10.17H192.15l-.38-1.28a34.2,34.2,0,0,0-4.94-10,39.41,39.41,0,0,0-8.35-8.48,41,41,0,0,0-11.39-6,45.89,45.89,0,0,0-32.46,1.66A46.57,46.57,0,0,0,119.87,49.4a49.88,49.88,0,0,0-9.9,16,54.72,54.72,0,0,0-3.54,19.87A54.69,54.69,0,0,0,110,105.16a48.63,48.63,0,0,0,9.89,15.9,47.42,47.42,0,0,0,14.77,10.65A43.18,43.18,0,0,0,153,135.57c9.69,0,17.8-1.85,24.2-5.53a30.94,30.94,0,0,0,4.68-3.25,36.92,36.92,0,0,0,10.66-14.92A44.09,44.09,0,0,0,194.6,105H151.14V72h81.52c.41,2.62.69,5.27.84,8"/></g></g></svg>