<?xml version="1.0" encoding="utf-8"?>
<!-- Generator: Adobe Illustrator 26.0.3, SVG Export Plug-In . SVG Version: 6.00 Build 0)  -->
<svg version="1.1" id="Calque_1" xmlns="http://www.w3.org/2000/svg" xmlns:xlink="http://www.w3.org/1999/xlink" x="0px" y="0px"
	 viewBox="0 0 658 351.9" style="enable-background:new 0 0 658 351.9;" xml:space="preserve">
<style type="text/css">
	.st0{fill:#FFFFFF;}
	.st1{fill:#38A8E0;}
</style>
<rect id="XMLID_00000150103557870997870340000011206038305289741739_" x="3.8" y="2.9" class="st0" width="37.3" height="169"/>
<polygon id="XMLID_00000173150964089291252490000009545432040811640467_" class="st1" points="481.4,171.9 518.7,171.9 518.7,103.7 
	587.1,103.7 587.1,68.7 518.7,68.7 518.7,37.9 595,37.9 595,2.9 481.4,2.9 "/>
<rect id="XMLID_00000164496314293163581850000005309627220315637141_" x="617" y="2.9" class="st1" width="37.3" height="169"/>
<polygon id="XMLID_00000166649894138668446090000012827829733353005238_" class="st0" points="260.5,2.9 297.8,2.9 370.4,106.2 
	370.9,2.9 406.8,3 406.8,171.9 372,171.9 297,64.3 297.1,171.9 260.5,171.9 "/>
<path id="XMLID_00000031189535020621333540000008392428851513489038_" class="st0" d="M233.3,82.2v6.9c0,1.9,0,3.7-0.1,5.5
	c-0.7,8.9-2.8,17.5-6.2,25.7c-4.2,10-10.2,19.1-17.7,26.9c-7.5,7.7-16.4,13.9-26.2,18.1c-9.9,4.3-20.5,6.5-31.2,6.6
	c-22.1-0.1-43.3-9-58.8-24.7c-7.6-7.8-13.7-16.9-18-26.9c-4.4-10.4-6.7-21.5-6.6-32.8c-0.1-11.3,2.2-22.4,6.5-32.8
	c8.4-20.2,24.2-36.4,44.3-45.2c10.1-4.4,21-6.7,32-6.7c11,0,21.8,2.3,31.8,6.7c9.8,4.3,18.8,10.5,26.2,18.2
	c7.5,7.8,13.5,16.9,17.7,26.9c1.4,3.3,2.6,6.7,3.5,10.2h-38.6l-0.4-1.3c-1.1-3.6-2.8-7-4.9-10c-2.3-3.2-5.2-6.1-8.4-8.5
	c-3.5-2.6-7.3-4.6-11.4-6c-10.7-3.4-22.2-2.8-32.5,1.7c-5.6,2.6-10.6,6.2-14.8,10.8c-4.3,4.7-7.6,10.1-9.9,16
	c-2.4,6.3-3.6,13.1-3.5,19.9c-0.1,6.8,1.1,13.5,3.5,19.9c2.2,5.9,5.6,11.3,9.9,15.9c4.2,4.5,9.2,8.1,14.8,10.7
	c5.8,2.6,12,3.9,18.3,3.9c9.7,0,17.8-1.9,24.2-5.5c1.7-0.9,3.2-2,4.7-3.2c4.8-4,8.4-9.1,10.7-14.9c0.9-2.2,1.6-4.5,2.1-6.8h-43.5
	v-33h81.5C232.8,76.7,233.1,79.4,233.3,82.2"/>
</svg>
